<?xml version="1.0" encoding="utf-8"?>
<!-- Generator: Adobe Illustrator 16.0.0, SVG Export Plug-In . SVG Version: 6.00 Build 0)  -->
<!DOCTYPE svg PUBLIC "-//W3C//DTD SVG 1.1//EN" "http://www.w3.org/Graphics/SVG/1.1/DTD/svg11.dtd">
<svg version="1.1" xmlns="http://www.w3.org/2000/svg" xmlns:xlink="http://www.w3.org/1999/xlink" x="0px" y="0px" width="525px"
	 height="150px" viewBox="0 0 525 150" style="enable-background:new 0 0 525 150;" xml:space="preserve">
<style type="text/css">
<![CDATA[
	.st0{display:none;fill:#1A4C6B;stroke:#FFFFFF;stroke-width:2;stroke-miterlimit:10;}
	.st1{fill:#1A4C6B;}
	.st2{fill:#FFFFFF;}
	.st3{fill:#1A4C6B;stroke:#FFFFFF;stroke-width:2;stroke-miterlimit:10;}
	.st4{fill:#FFFFFF;stroke:#1A4C6B;stroke-width:8;stroke-miterlimit:10;}
]]>
</style>
<g id="Layer_1">
	<g>
		<rect class="st1" width="525" height="150"/>
		<rect x="10" y="10" class="st2" width="505" height="130"/>
	</g>
</g>
<g id="Layer_2">
	<g>
		<polyline class="st2" points="453,13.3 442.9,13.6 448.9,0 		"/>
		<g>
			<g>
				<path class="st3" d="M448.2,3.5c0,0,3.4,47.5-17.9,73.9c-3.6,4.5-68.1,0.1-68.1,0.1S417.6,64.3,448.2,3.5z"/>
				<path class="st0" d="M450.4,2.1c0,0,10.5,42.6-23.1,78.5C427.3,80.6,551.5,68.7,450.4,2.1z"/>
				<path class="st3" d="M363,80.5c0,0,73.2,6.7,147.7-14.6c0,0-6.7,20.4-13.4,24.4H364.9L363,80.5z"/>
			</g>
		</g>
	</g>
	<path class="st3" d="M450.2,2.1c0,0,9,47.1-19.7,76.9c0,0,60.8-5.6,59.8-33C490.3,45.9,490.8,28.1,450.2,2.1z"/>
</g>
<g id="reference">
	<g>
		<path class="st1" d="M31.8,61.6v2.3c0,0.6,0.3,1.9,0.9,4.1c0.6,2.1,1.4,3.7,2.4,4.8c0.8,0.9,1.9,1.5,3.2,2.1
			c1.4,0.5,2.7,0.9,4.1,1.1c1.3,0.2,2.2,0.3,2.5,0.3h2.5c0.6,0,2.2-0.4,4.8-1.3c2.6-0.9,5-1.8,7-2.7c1.9-0.8,3.9-1.9,6.2-3.3
			c2.3-1.4,3.7-2.3,4.3-2.6l1.3-0.7l-0.7,1.9c-0.1,0.1-0.7,1-1.6,2.8c-1,1.8-1.9,3.5-2.8,5.2c-0.3,0.7-0.6,1.3-1,2
			c-0.3,0.6-0.6,1.2-0.8,1.8c-0.2,0.6-0.5,1.1-0.6,1.8l-0.6,1.4h-2.6H48.9c-0.3,0-0.9-0.1-1.8-0.2C46.2,82,45.5,82,44.8,82
			c-0.6,0-1.3,0.1-2.2,0.3c-0.9,0.2-1.6,0.3-2,0.3h-3.9c-2.3,0-4.2-0.1-6-0.4c-1.7-0.3-3.3-0.8-4.8-1.5c-1.5-0.8-2.9-1.8-4.2-3.3
			c-1.3-1.5-2.3-3.2-3.1-5.1c-0.7-1.9-1.1-3.7-1.1-5.4v-5.3c0-2.8,0.7-5.6,2.2-8.4c1.5-2.8,3.5-5.3,6.2-7.7c1.5-1.3,3-2.4,4.4-3.1
			c1.4-0.7,2.9-1.2,4.4-1.6s3.5-0.7,6.1-1c2.6-0.3,4.3-0.5,5.1-0.7l3.4-0.6h3.5c1.6,0,3.7,0.4,6.2,1.2c2.5,0.8,4.5,2.1,6.1,3.7
			c1.3,1.3,2.3,2.7,3.1,4.2s1.2,3,1.2,4.2v3.6l-1.8,6.3l-2.1-0.2c-0.8-0.1-1.7-0.2-2.7-0.4S61,61.1,60.2,61
			c-0.8-0.1-1.6-0.2-2.3-0.2c-0.8,0-1.7,0.1-2.9,0.4c-1.1,0.3-3.2,0.4-6.1,0.4H31.8z M54.6,54.9l0.3-1.4v-1.3c0-0.3-0.3-1-0.8-1.9
			c-0.5-0.9-1.1-1.6-1.7-2.1c-0.7-0.7-1.5-1.3-2.5-1.7c-1-0.4-2-0.8-3.1-1c-1-0.2-1.7-0.3-2-0.3h-1.4c-0.2,0-1,0.3-2.3,0.9
			c-1.3,0.6-2.5,1.3-3.5,2.1c-0.9,0.8-1.7,1.6-2.5,2.5c-0.8,0.9-1.2,1.6-1.3,2.1l-0.6,2.9h2.7L54.6,54.9z"/>
		<path class="st1" d="M110.3,79.6l-1.7,1c-0.2,0.1-0.4,0.3-0.6,0.4c-0.3,0.1-0.6,0.3-0.9,0.4c-0.4,0.1-0.7,0.2-0.9,0.3
			c-1.3,0.4-2.2,0.6-2.7,0.6l-4.8-0.2c-0.2,0-0.5,0.1-1.1,0.2s-1.1,0.2-1.7,0.4c-0.6,0.1-1,0.2-1.3,0.3c-0.5,0.1-0.9,0.2-1.2,0.3
			c-0.3,0.1-0.6,0.2-1,0.2c-0.4,0.1-0.8,0.1-1.3,0.1H89c-2.2,0-4-0.4-5.7-1.1c-1.6-0.7-3.3-1.8-4.9-3.3c-1.3-1.2-2.4-2.6-3.3-4.2
			c-0.9-1.7-1.6-3.3-2-4.9c-0.4-1.6-0.6-3.2-0.6-4.6l0.2-3.2c0.1-2.6,0.7-5.4,1.9-8.2c1.2-2.8,2.9-5.3,5.1-7.2
			c1.5-1.3,3.1-2.4,4.8-3.3c1.7-0.8,3.4-1.5,5.1-2s2.9-0.7,3.9-0.7h5.9L104,40h4.4c0.8,0,2.8,0.4,5.8,1.2c0.6,0.2,1.7,0.5,3.1,1
			l2.1-0.7c0.6-0.2,1-0.3,1.4-0.4s0.7-0.2,1.3-0.3c0.5-0.2,1.1-0.4,1.6-0.6c0.6-0.2,1.2-0.5,1.9-0.9c0.7-0.3,1.1-0.5,1.3-0.6l1-0.1
			l-0.6,1.9c-1.3,5.1-2,8.6-2.3,10.6c-0.8,4.4-1.2,8.2-1.2,11.4V68c0,0.2,0.1,1.3,0.2,3.3c0.1,2,0.3,3.6,0.6,5
			c0.1,0.4,0.2,0.9,0.3,1.4c0.1,0.5,0.2,0.8,0.2,1c0,0.2,0.1,0.5,0.2,0.9c0.1,0.4,0.2,0.9,0.3,1.3l0.4,1.7h-1.6
			c-0.6,0-1.4,0-2.3-0.1c-0.9,0-1.8-0.1-2.7-0.1c-0.9,0-1.7-0.1-2.3-0.1c-1,0-2.7,0.2-5.1,0.6h-1.2L110.3,79.6z M90.1,72.9
			c0.9,1,2,1.8,3.2,2.4c1.2,0.6,2.3,0.9,3.1,0.9h1.2c0.6-0.1,1.6-0.5,2.9-1.4c1.4-0.8,2.7-1.9,4-3.1c1.3-1.2,2.5-2.5,3.5-4
			c1.1-1.7,2.1-3.9,3.1-6.7c0.9-2.8,1.4-4.6,1.4-5.2l-0.1-1.2c-0.1-0.6-0.7-1.6-1.9-3c-1.1-1.4-2.3-2.5-3.4-3.1
			c-2.4-1.5-4.4-2.2-6.2-2.2h-1.3c-0.5,0-1.2,0.3-2.4,1C96,48,94.8,48.9,93.6,50c-1.2,1.1-2.2,2.2-2.9,3.1c-2.4,3.5-3.5,6.4-3.5,8.9
			v1.4c0,1.1,0.2,2.6,0.6,4.6C88.2,70.1,89,71.7,90.1,72.9z"/>
		<path class="st1" d="M151.8,72.2v3.3c0,0.1,0.1,1.2,0.4,3.3c0.3,1.5,0.5,2.3,0.5,2.4l0.2,1.3l-1.1-0.1c-0.3-0.1-1.2-0.1-2.8-0.2
			c-1.5-0.1-2.8-0.1-3.8-0.1c-0.2,0-0.9,0-1.9,0.1c-1.1,0.1-1.9,0.1-2.5,0.2c-0.6,0-0.8,0.1-0.8,0.1h-2.4l0.2-1
			c0.2-2.5,0.5-4.6,0.7-6.4c0.2-3.2,0.4-5.5,0.4-6.9c0.1-1.4,0.1-2.3,0.1-2.5v-11c0-0.8-0.3-2.1-1-3.9c-0.7-1.7-1.6-3.1-2.7-4.2
			c-0.8-0.7-1.5-1.3-2.2-1.7c-0.6-0.4-1.3-0.9-2.1-1.3c-0.7-0.4-1.4-0.9-2-1.4l-1.2-1.2l3.5,0.2c2.1,0,3.4,0,4.1,0
			c0.7,0,1.4-0.1,2.2-0.2c0.8-0.1,2-0.2,3.4-0.4c3.3-0.3,5.9-0.6,7.9-1.1l1.7-0.4c0.2,1.3,0.4,2,0.4,2.1c0.1,0.2,0.1,0.4,0.1,0.6
			c0,0.2,0.1,0.4,0.1,0.6c0.1,0.2,0.1,0.4,0.1,0.6l0.3,1.5l1.2-1c0.1,0,0.7-0.3,1.7-0.8c1-0.5,1.9-0.8,2.7-0.9
			c4.1-0.7,6.7-1.1,7.8-1.1h1.2c0,0,0.5-0.2,1.5-0.5c1-0.4,1.9-0.6,2.7-0.8c0.2,0,0.8-0.1,1.9-0.2s1.7-0.2,1.6-0.2h4.7
			c0.8,0,2.1,0.3,3.9,1c1.8,0.7,3.3,1.6,4.3,2.7c1,1.1,1.8,2.4,2.4,4c0.6,1.6,0.9,3,1,4.3l0.1,1.2c0,1.2-0.3,2.7-1,4.4
			c-0.7,1.7-1.6,3.3-2.8,4.9c-0.8,1-1.7,2-3,2.9c-1.2,0.9-2.5,1.7-3.9,2.4s-2.1,1.1-2.1,1.1c-0.2,0.2-0.5,0.3-0.7,0.5
			c-0.2,0.2-0.3,0.4-0.4,0.6c0,0.3,0.1,0.6,0.4,0.9s0.4,0.5,0.6,0.6c0,0,0.7,0.5,2.1,1.3c1.4,0.9,2.9,1.8,4.4,2.8
			c1.3,0.8,2.5,1.5,3.6,2.2c1.1,0.7,2.1,1.3,3.2,1.9c1,0.6,2.3,1.2,3.6,1.8l1.2,0.6l-0.7,0.4c-0.2,0.1-0.8,0.3-1.7,0.5
			c-0.9,0.2-1.9,0.4-2.9,0.5c-1.9,0.4-3.8,0.6-5.6,0.6h-6.6c-1.4,0-2.5-0.1-3.3-0.4c-0.3-0.1-0.6-0.1-0.9-0.3s-0.7-0.3-1-0.5
			c-0.4-0.2-0.8-0.4-1.2-0.6c-0.3-0.1-1.4-0.7-3.5-1.7c-2.1-1.1-3.7-1.9-4.9-2.5c-1.2-0.6-2.9-1.3-5.1-2.2c-2.2-0.9-3.6-1.5-4.3-1.7
			L151.8,72.2z M152.5,68.2c0.2,0.1,0.7,0.1,1.7,0.1c0.5,0,2.2-0.4,5.2-1.3c3-0.8,5.3-1.8,7-2.8c1.5-0.8,2.8-1.9,4-3.3
			c1.2-1.3,2.1-2.7,2.8-4.2c0.6-1.5,1-2.8,1-4.2v-1c-0.1-1.5-1-2.7-2.6-3.7c-0.5-0.3-1.4-0.8-2.5-1.2c-1.2-0.5-1.9-0.7-2.2-0.7h-0.7
			c-0.5,0.1-1.9,0.8-4,2.3c-2.1,1.5-3.7,2.9-4.8,4.2c-1,1.2-1.9,2.7-2.7,4.6c-0.8,1.9-1.4,3.6-1.9,5.2c-0.4,1.6-0.7,2.5-0.7,2.8V67
			C152.1,67.4,152.2,67.8,152.5,68.2z"/>
		<path class="st1" d="M210,81.3H209l-8.8,3.1l-2.7,0.7l0.7-3.1c1.2-4.8,1.8-8.8,1.9-11.9c0.1-1.3,0.2-3.5,0.4-6.6
			c0.2-3.1,0.3-4.7,0.3-5V32.1c0-0.6,0-1.3-0.1-1.9c-0.1-0.6-0.2-1.1-0.3-1.6c-0.1-0.4-0.2-1-0.4-1.7c-0.1-0.7-0.3-1.4-0.4-2
			c-0.1-0.6-0.3-1.1-0.3-1.6l-0.5-2.5l2.5,0.3c1.6,0.1,3.5,0.1,5.9,0.1c1.2,0,2.3-0.1,3.4-0.2s2.3-0.3,3.5-0.7l2.7-0.7l-0.2,2.7
			c-0.1,0.2-0.4,1.8-1,4.5s-0.9,5.4-1.1,7.9c-0.2,2.1-0.4,4.9-0.8,8.4c-0.4,3.5-0.5,5.4-0.5,5.7v13.5l0.5,8l0.1,3l1.2,0.9
			c1.1,0,2.8-0.2,5.2-0.7c0.2-0.1,0.9-0.2,2.1-0.6c1.1-0.3,2-0.6,2.6-0.7l1.9-0.5l-3.1,9.4l-1.5,0.8c-1.1,0.4-2.7,0.6-4.8,0.6
			c-1.7,0-2.9-0.1-3.8-0.4L210,81.3z"/>
		<path class="st1" d="M259.6,81.2h-2.4c-0.3,0-1.5,0.2-3.6,0.6c-0.5,0.1-0.9,0.2-1.4,0.3c-0.5,0.1-1.1,0.3-1.8,0.5l-1.6,0.5
			l0.2-1.9c0.1-1.5,0.3-2.9,0.4-4.2c0.2-1.3,0.3-2.7,0.4-4c0.1-1.3,0.1-2.8,0.1-4.4c0-2-0.2-4.2-0.5-6.6s-0.6-4-0.9-4.9l-1.7-5.4
			c0-0.2-0.1-0.5-0.2-1c-0.1-0.5-0.4-0.8-0.7-1c-0.4-0.2-0.7-0.2-1.2-0.2c-0.2,0-0.4,0-0.5,0s-0.6,0.1-1.3,0.2
			c-2,0.1-3.8,0.2-5.5,0.4c-1.2,0.1-3,0.3-5.3,0.7l-2.2,0.2l1.2-1.4c2.6-2.7,4.1-4.3,4.6-5c0.5-0.5,1.6-1.8,3.4-4l0.8-1.1l1.9,0.1
			c3.1,0.1,5.1,0.2,6,0.2c0.9,0,1.9,0,3.1-0.1s2.4-0.1,3.9-0.2l1.6-0.2l0.8,1.3c0.3,0.5,1.2,2.2,2.4,5s2.1,5.3,2.6,7.5
			c0.7,3,1.1,6.7,1.1,11.2l0.5,7.1l2.5-4.5c0.1-0.1,0.9-2,2.4-5.6s2.5-5.7,2.8-6.4c1-2.2,2.5-4.9,4.4-8.4c1.9-3.4,3-5.3,3.1-5.7
			l0.8-1.7h13.4l-2,3.4c-0.2,0.3-1,1.8-2.6,4.6c-1.6,2.8-2.7,4.9-3.5,6.3c-0.8,1.4-1.6,3.1-2.6,5.1c-1,2-2.1,4.2-3.3,6.8
			c-1.4,3.1-3,6.9-4.7,11.3c-1.7,4.4-2.7,7-2.9,7.8l-1.1,3.5c-0.5,2.2-1.4,4-2.5,5.4c-1.1,1.4-2.7,2.8-4.7,4.2
			c-1.7,1.2-3.4,1.9-5,2.4s-3.7,0.8-6.2,1.1l-1.6,0.2c-0.9,0.1-1.7,0.3-2.6,0.6c-0.9,0.3-1.7,0.5-2.4,0.7c-1.9,0.3-3.5,0.5-4.8,0.5
			h-3.2c-1.3,0-2.4-0.1-3.4-0.4c-1-0.2-1.9-0.6-2.6-1.2c-0.8-0.5-1.5-1.3-2.3-2.2c-0.8-1-1.4-2.2-1.8-3.6s-0.6-2.5-0.6-3.6v-1.8
			c0-2,0.8-5.1,2.4-9.1c0.6-1.6,1.4-3.2,2.4-5c1-1.7,1.8-2.9,2.2-3.4l1.5-1.5l2.4,0.1c0.7,0,1.5-0.1,2.3-0.2s1.5-0.2,2.1-0.3
			c0.2-0.1,0.5-0.1,0.9-0.2c0.3-0.1,0.7-0.2,0.9-0.2c0.3-0.1,0.7-0.1,1.3-0.2l1.9-0.2l-0.6,1.4c-0.5,0.6-1.5,1.6-2.8,3
			c-1.3,1.4-2.3,2.8-2.9,4.2c-1.5,3.1-2.2,6.2-2.2,9.2c0,1.9,0.3,3.4,0.8,4.5c0.6,1.2,1.5,2.3,2.5,3.2c1.1,0.9,2.1,1.3,3,1.3h2.4
			c0.8,0,1.6-0.3,2.6-1c1-0.7,2-1.6,3.2-2.7c0.9-0.9,1.8-2,2.6-3.4s1.3-2.2,1.4-2.5l1.2-3L259.6,81.2z"/>
		<path class="st1" d="M303.7,19.5c-0.5,4.1-0.8,7.2-0.9,9.4c0,4.6,0.1,8.3,0.2,11.1c0-0.2-1.1-0.2-3.2-0.2c-0.3,0-0.8,0-1.5,0.1
			c-0.7,0.1-1.3,0.1-1.7,0.1c-0.2-3.4-0.5-6.9-1-10.6c-0.5-3.8-1-7.1-1.5-9.8c1.7,0.2,3.4,0.3,5,0.3
			C300.5,19.8,302.1,19.7,303.7,19.5z"/>
		<path class="st1" d="M353.6,47.9l0.2,2.9l-2.6-0.2c-0.1,0-0.3,0-0.7-0.1s-0.9-0.1-1.4-0.1c-0.5,0-1,0-1.4-0.1s-0.9,0-1.6,0
			c-0.5,0-1.4,0.1-2.7,0.3c-1.3,0.2-2.4,0.3-3.3,0.3h-1v-1.2c0-1-1-2.1-3.1-3.5c-0.6-0.5-1.5-0.8-2.7-1c-1.1-0.2-1.9-0.3-2.5-0.3
			h-1.3c-0.2,0-0.9,0.2-1.9,0.5c-1,0.3-1.8,0.7-2.5,1.1c-1,0.7-1.9,1.5-2.7,2.3c-0.8,0.8-1.1,1.5-1.1,2v1.3c0,0.3,0.1,0.6,0.3,0.9
			c0.2,0.3,0.3,0.5,0.5,0.6c0.2,0.2,0.5,0.3,0.9,0.6s0.7,0.4,0.9,0.5c1.1,0.7,2.7,1,4.8,1h1c0.1,0,0.8-0.1,2-0.3s2.1-0.3,2.8-0.3
			c2.7-0.4,4.7-0.6,5.9-0.6h4c0.9,0,2,0.2,3.3,0.6c1.3,0.4,2.3,1,3.2,1.9c0.8,0.7,1.5,1.7,2.1,2.8s0.8,2,0.8,2.7v3.5
			c0,3.7-1.8,7.3-5.5,10.8c-1.8,1.8-4.1,3.1-7,3.9s-5.3,1.3-7.2,1.3l-4.1-0.3h-1.9c-0.4,0-0.8,0.1-1.5,0.3s-1.1,0.3-1.5,0.4
			c-0.3,0.1-0.6,0.1-0.8,0.1c-0.3,0-0.6,0.1-0.8,0.1c-0.2,0-0.4,0.1-0.7,0.1c-0.2,0-0.5,0.1-0.8,0.1h-3c-1.1,0-2.8-0.3-5-1
			s-4-1.6-5.4-2.8c-1.3-1.2-2.3-2.6-2.9-4.2c-0.6-1.6-1-3-1-4.3l0.2-4.2l6.5,0.8h9.2l-0.2,1c0,0.3-0.1,0.7-0.1,1.1
			c-0.1,0.4-0.1,0.8-0.1,1.2c0,0.4-0.1,0.7-0.1,0.9c0,1.2,0.3,2.2,1,3c1,1.4,3,2.1,5.8,2.1h1.7c1,0,2.2-0.3,3.6-0.8
			c1.4-0.5,2.6-1.3,3.6-2.2c2.2-2,3.3-4,3.3-6v-0.8c0-0.5-0.3-1.1-0.9-1.8c-0.5-0.5-1.6-0.9-3.3-1.3c-0.7-0.3-2.6-0.4-5.7-0.4
			c-0.9,0-2,0.1-3.2,0.2s-1.7,0.2-1.6,0.2h-3.3c-0.2,0-0.4,0-0.7,0c-0.3,0-0.7,0-1.2,0.1c-3.7,0-6.4-0.6-8.3-1.7
			c-3.7-2.5-5.6-5.4-5.6-8.8l0.1-1c0-1.3,0.3-2.5,0.9-3.6c0.6-1.1,1.3-2.1,2.3-3s2-1.8,3.2-2.6c1.6-1.2,3.7-2.1,6.5-2.7
			c2.7-0.6,4.6-0.8,5.8-0.8h2.4l3.9,0.4c0.3-0.1,0.7-0.3,1.2-0.4c0.5-0.2,1.1-0.4,1.6-0.5c0.6-0.1,1.4-0.2,2.2-0.3
			c0.8-0.1,1.4-0.2,1.8-0.2h4.8c2.5,0,5,0.9,7.6,2.7c0.9,0.6,1.7,1.4,2.2,2.3c0.6,0.9,0.9,1.8,1.1,2.5
			C353.4,46.5,353.5,47.2,353.6,47.9z"/>
	</g>
	<g>
		<path class="st1" d="M24.2,112.1l0.8-0.3c0.2-0.1,0.3-0.1,0.5-0.2c0.2-0.1,0.3-0.2,0.4-0.2c0.5-0.1,1.1-0.2,2-0.2l0.9,0
			c0.2,0,0.5-0.1,0.8-0.2c0.3-0.2,0.6-0.3,0.8-0.3c0.4-0.1,0.9-0.2,1.3-0.3c0.4-0.1,0.7-0.1,0.8-0.1h1.4c0.5,0,1.1,0.1,1.7,0.4
			c0.6,0.2,1.1,0.5,1.6,1c0.5,0.4,1,0.9,1.4,1.5c0.4,0.7,0.7,1.3,0.9,2c0.2,0.6,0.2,1.5,0.2,2.5v1.3c0,0.6-0.1,1.3-0.2,2
			c-0.1,0.7-0.3,1.3-0.6,1.9c-0.3,0.6-0.6,1.2-1,1.8c-0.4,0.6-0.9,1.1-1.5,1.7c-0.7,0.6-1.4,1.1-2.2,1.5c-0.8,0.4-1.5,0.7-2,0.8
			c-0.5,0.1-1.1,0.3-1.6,0.3c-0.6,0.1-0.9,0.1-1,0.1c-1.3,0.5-2.3,0.8-3.3,0.8c-0.7,0-1.3,0-1.7-0.1c-0.5-0.1-1-0.2-1.6-0.5
			l-1.7-0.7l-3.9,1.7l0.2-1.4c0.1-0.4,0.2-1.1,0.3-2.3c0.2-1.2,0.3-2,0.3-2.4c0-0.4,0.1-1.1,0.2-1.9c0.1-0.8,0.1-1.7,0.1-2.5
			c0-0.6,0-1,0-1.4c0-0.4,0-1.4-0.1-2.9c0-1.5,0-2.2,0-2.1l-0.1-3.5c0-1.7-0.2-3.1-0.6-4.3c-0.2-0.7-0.6-1.5-1.2-2.1l-0.5-0.6
			c1.2-0.3,2.7-0.5,4.5-0.7c1.3-0.2,2.7-0.3,4.4-0.3l-0.1,0.7c0,0.2-0.1,0.8-0.2,1.7c-0.1,0.9-0.1,1.9-0.2,2.9
			c-0.2,1.9-0.2,2.9-0.2,3.2V112.1z M32.4,123.5c0.8-1.4,1.2-2.8,1.2-4v-1.3c0-0.3-0.1-0.7-0.3-1.3c-0.2-0.5-0.4-1-0.7-1.4
			c-0.4-0.5-0.9-0.9-1.7-1.3c-0.7-0.4-1.3-0.6-1.7-0.6h-0.5c-0.1,0-0.5,0.3-1,0.7c-0.5,0.4-1.1,1-1.7,1.6c-0.6,0.6-1,1.2-1.3,1.8
			c-0.4,0.7-0.7,1.7-1,3c-0.3,1.3-0.4,2-0.4,2.2v0.7c0,0.1,0.2,0.4,0.7,0.8c0.4,0.4,1,0.8,1.6,1.1c0.5,0.3,1,0.5,1.6,0.7
			s1,0.3,1.2,0.3h0.7c0.2,0,0.7-0.4,1.5-1.1C31.5,124.9,32,124.2,32.4,123.5z"/>
		<path class="st1" d="M56.8,128.2l-0.8,0.4c-0.1,0.1-0.2,0.1-0.3,0.2c-0.1,0.1-0.3,0.1-0.4,0.2c-0.2,0-0.3,0.1-0.4,0.1
			c-0.6,0.2-1,0.3-1.2,0.3l-2.1-0.1c-0.1,0-0.2,0-0.5,0.1c-0.2,0.1-0.5,0.1-0.7,0.2c-0.2,0.1-0.4,0.1-0.6,0.1
			c-0.2,0-0.4,0.1-0.5,0.1c-0.1,0-0.3,0.1-0.4,0.1c-0.2,0-0.4,0-0.6,0h-0.9c-0.9,0-1.8-0.2-2.5-0.5c-0.7-0.3-1.4-0.8-2.1-1.5
			c-0.6-0.5-1.1-1.1-1.5-1.9c-0.4-0.7-0.7-1.5-0.9-2.2c-0.2-0.7-0.3-1.4-0.3-2l0.1-1.4c0-1.2,0.3-2.4,0.9-3.6
			c0.5-1.3,1.3-2.3,2.2-3.2c0.6-0.6,1.3-1.1,2.1-1.4c0.8-0.4,1.5-0.7,2.2-0.9c0.7-0.2,1.3-0.3,1.7-0.3H52l2-0.4h1.9
			c0.4,0,1.2,0.2,2.6,0.5c0.3,0.1,0.7,0.2,1.4,0.5l0.9-0.3c0.3-0.1,0.5-0.1,0.6-0.2s0.3-0.1,0.6-0.2s0.5-0.2,0.7-0.3
			c0.2-0.1,0.5-0.2,0.8-0.4c0.3-0.1,0.5-0.2,0.6-0.3l0.4,0l-0.2,0.8c-0.6,2.2-0.9,3.8-1,4.7c-0.3,2-0.5,3.6-0.5,5v2.4
			c0,0.1,0,0.6,0.1,1.4c0.1,0.9,0.2,1.6,0.3,2.2c0,0.2,0.1,0.4,0.1,0.6c0,0.2,0.1,0.4,0.1,0.4s0,0.2,0.1,0.4s0.1,0.4,0.1,0.6
			l0.2,0.8H63c-0.3,0-0.6,0-1,0s-0.8,0-1.2-0.1c-0.4,0-0.7,0-1,0c-0.5,0-1.2,0.1-2.3,0.2H57L56.8,128.2z M47.9,125.3
			c0.4,0.4,0.9,0.8,1.4,1.1c0.5,0.3,1,0.4,1.3,0.4h0.5c0.3,0,0.7-0.2,1.3-0.6c0.6-0.4,1.2-0.8,1.8-1.3c0.6-0.5,1.1-1.1,1.6-1.8
			c0.5-0.7,0.9-1.7,1.3-3c0.4-1.2,0.6-2,0.6-2.3l0-0.5c0-0.2-0.3-0.7-0.8-1.3c-0.5-0.6-1-1.1-1.5-1.4c-1-0.7-2-1-2.8-1H52
			c-0.2,0-0.6,0.2-1,0.5c-0.5,0.3-1,0.7-1.6,1.2c-0.6,0.5-1,0.9-1.3,1.4c-1,1.5-1.6,2.8-1.6,3.9v0.6c0,0.5,0.1,1.2,0.3,2
			C47,124,47.4,124.7,47.9,125.3z"/>
		<path class="st1" d="M75,124.9v1.5c0,0,0.1,0.5,0.2,1.5c0.2,0.7,0.2,1,0.2,1l0.1,0.6l-0.5,0c-0.1,0-0.5,0-1.2-0.1
			c-0.7,0-1.2,0-1.7,0c-0.1,0-0.4,0-0.9,0c-0.5,0-0.8,0.1-1.1,0.1c-0.3,0-0.4,0-0.3,0h-1l0.1-0.4c0.1-1.1,0.2-2,0.3-2.8
			c0.1-1.4,0.2-2.4,0.2-3s0.1-1,0.1-1.1v-4.9c0-0.4-0.1-0.9-0.4-1.7c-0.3-0.8-0.7-1.4-1.2-1.8c-0.4-0.3-0.7-0.6-1-0.8
			s-0.6-0.4-0.9-0.6c-0.3-0.2-0.6-0.4-0.9-0.6l-0.6-0.5l1.6,0.1c0.9,0,1.5,0,1.8,0s0.6,0,1-0.1c0.4,0,0.9-0.1,1.5-0.2
			c1.4-0.1,2.6-0.3,3.5-0.5l0.7-0.2c0.1,0.6,0.2,0.9,0.2,0.9c0,0.1,0,0.2,0.1,0.3c0,0.1,0,0.2,0.1,0.3c0,0.1,0,0.2,0.1,0.3l0.1,0.7
			l0.6-0.4c0,0,0.3-0.1,0.8-0.4c0.5-0.2,0.8-0.4,1.2-0.4c1.8-0.3,3-0.5,3.4-0.5h0.5c0,0,0.2-0.1,0.7-0.2c0.4-0.2,0.8-0.3,1.2-0.3
			c0.1,0,0.4,0,0.9-0.1c0.5-0.1,0.7-0.1,0.7-0.1h2.1c0.3,0,0.9,0.2,1.7,0.5c0.8,0.3,1.4,0.7,1.9,1.2c0.5,0.5,0.8,1.1,1.1,1.8
			s0.4,1.3,0.4,1.9l0,0.5c0,0.5-0.2,1.2-0.5,1.9c-0.3,0.7-0.7,1.5-1.2,2.2c-0.3,0.5-0.8,0.9-1.3,1.3c-0.5,0.4-1.1,0.7-1.7,1
			c-0.6,0.3-0.9,0.5-0.9,0.5c-0.1,0.1-0.2,0.1-0.3,0.2c-0.1,0.1-0.1,0.2-0.2,0.3c0,0.1,0.1,0.3,0.2,0.4c0.1,0.1,0.2,0.2,0.3,0.3
			c0,0,0.3,0.2,0.9,0.6s1.3,0.8,1.9,1.2c0.6,0.3,1.1,0.7,1.6,1s0.9,0.6,1.4,0.8s1,0.5,1.6,0.8l0.6,0.2l-0.3,0.2
			c-0.1,0.1-0.3,0.1-0.7,0.2s-0.8,0.2-1.3,0.2c-0.8,0.2-1.7,0.2-2.5,0.2h-2.9c-0.6,0-1.1-0.1-1.5-0.2c-0.1,0-0.3-0.1-0.4-0.1
			c-0.1-0.1-0.3-0.1-0.5-0.2c-0.2-0.1-0.3-0.2-0.5-0.3c-0.1,0-0.6-0.3-1.5-0.8c-0.9-0.5-1.6-0.8-2.1-1.1c-0.5-0.3-1.3-0.6-2.3-1
			c-1-0.4-1.6-0.6-1.9-0.7L75,124.9z M75.4,123.2c0.1,0,0.3,0,0.7,0c0.2,0,1-0.2,2.3-0.6s2.3-0.8,3.1-1.2c0.7-0.4,1.2-0.8,1.8-1.4
			c0.5-0.6,0.9-1.2,1.2-1.8c0.3-0.6,0.4-1.3,0.4-1.8v-0.4c0-0.7-0.4-1.2-1.2-1.6c-0.2-0.2-0.6-0.3-1.1-0.5s-0.8-0.3-1-0.3h-0.3
			c-0.2,0-0.8,0.4-1.7,1s-1.6,1.3-2.1,1.9c-0.4,0.5-0.8,1.2-1.2,2c-0.4,0.8-0.6,1.6-0.8,2.3c-0.2,0.7-0.3,1.1-0.3,1.3v0.8
			C75.2,122.8,75.2,123,75.4,123.2z"/>
		<path class="st1" d="M102.1,120c0-1.3,0.9-2.3,2.2-2.3s2.1,0.9,2.1,2.3c0,1.3-0.9,2.3-2.2,2.3C102.9,122.3,102,121.3,102.1,120z"
			/>
		<path class="st1" d="M122.6,124.9v1.5c0,0,0.1,0.5,0.2,1.5c0.2,0.7,0.2,1,0.2,1l0.1,0.6l-0.5,0c-0.1,0-0.5,0-1.2-0.1
			c-0.7,0-1.2,0-1.7,0c-0.1,0-0.4,0-0.9,0c-0.5,0-0.8,0.1-1.1,0.1c-0.3,0-0.4,0-0.3,0h-1l0.1-0.4c0.1-1.1,0.2-2,0.3-2.8
			c0.1-1.4,0.2-2.4,0.2-3s0.1-1,0.1-1.1v-4.9c0-0.4-0.1-0.9-0.4-1.7c-0.3-0.8-0.7-1.4-1.2-1.8c-0.4-0.3-0.7-0.6-1-0.8
			s-0.6-0.4-0.9-0.6c-0.3-0.2-0.6-0.4-0.9-0.6l-0.6-0.5l1.6,0.1c0.9,0,1.5,0,1.8,0s0.6,0,1-0.1c0.4,0,0.9-0.1,1.5-0.2
			c1.4-0.1,2.6-0.3,3.5-0.5l0.7-0.2c0.1,0.6,0.2,0.9,0.2,0.9c0,0.1,0,0.2,0.1,0.3c0,0.1,0,0.2,0.1,0.3c0,0.1,0,0.2,0.1,0.3l0.1,0.7
			l0.6-0.4c0,0,0.3-0.1,0.8-0.4c0.5-0.2,0.8-0.4,1.2-0.4c1.8-0.3,3-0.5,3.4-0.5h0.5c0,0,0.2-0.1,0.7-0.2c0.4-0.2,0.8-0.3,1.2-0.3
			c0.1,0,0.4,0,0.9-0.1c0.5-0.1,0.7-0.1,0.7-0.1h2.1c0.3,0,0.9,0.2,1.7,0.5c0.8,0.3,1.4,0.7,1.9,1.2c0.5,0.5,0.8,1.1,1.1,1.8
			s0.4,1.3,0.4,1.9l0,0.5c0,0.5-0.2,1.2-0.5,1.9c-0.3,0.7-0.7,1.5-1.2,2.2c-0.3,0.5-0.8,0.9-1.3,1.3c-0.5,0.4-1.1,0.7-1.7,1
			c-0.6,0.3-0.9,0.5-0.9,0.5c-0.1,0.1-0.2,0.1-0.3,0.2c-0.1,0.1-0.1,0.2-0.2,0.3c0,0.1,0.1,0.3,0.2,0.4c0.1,0.1,0.2,0.2,0.3,0.3
			c0,0,0.3,0.2,0.9,0.6s1.3,0.8,1.9,1.2c0.6,0.3,1.1,0.7,1.6,1s0.9,0.6,1.4,0.8s1,0.5,1.6,0.8l0.6,0.2l-0.3,0.2
			c-0.1,0.1-0.3,0.1-0.7,0.2s-0.8,0.2-1.3,0.2c-0.8,0.2-1.7,0.2-2.5,0.2h-2.9c-0.6,0-1.1-0.1-1.5-0.2c-0.1,0-0.3-0.1-0.4-0.1
			c-0.1-0.1-0.3-0.1-0.5-0.2c-0.2-0.1-0.3-0.2-0.5-0.3c-0.1,0-0.6-0.3-1.5-0.8c-0.9-0.5-1.6-0.8-2.1-1.1c-0.5-0.3-1.3-0.6-2.3-1
			c-1-0.4-1.6-0.6-1.9-0.7L122.6,124.9z M122.9,123.2c0.1,0,0.3,0,0.7,0c0.2,0,1-0.2,2.3-0.6s2.3-0.8,3.1-1.2
			c0.7-0.4,1.2-0.8,1.8-1.4c0.5-0.6,0.9-1.2,1.2-1.8c0.3-0.6,0.4-1.3,0.4-1.8v-0.4c0-0.7-0.4-1.2-1.2-1.6c-0.2-0.2-0.6-0.3-1.1-0.5
			s-0.8-0.3-1-0.3h-0.3c-0.2,0-0.8,0.4-1.7,1s-1.6,1.3-2.1,1.9c-0.4,0.5-0.8,1.2-1.2,2c-0.4,0.8-0.6,1.6-0.8,2.3
			c-0.2,0.7-0.3,1.1-0.3,1.3v0.8C122.7,122.8,122.8,123,122.9,123.2z"/>
		<path class="st1" d="M148.7,120.3v1c0,0.3,0.1,0.9,0.4,1.8c0.3,0.9,0.6,1.6,1.1,2.1c0.4,0.4,0.8,0.7,1.4,0.9
			c0.6,0.2,1.2,0.4,1.8,0.5s1,0.1,1.1,0.1h1.1c0.3,0,1-0.2,2.1-0.6c1.2-0.4,2.2-0.8,3.1-1.2c0.8-0.4,1.7-0.9,2.7-1.5
			c1-0.6,1.6-1,1.9-1.2l0.6-0.3l-0.3,0.8c0,0-0.3,0.5-0.7,1.2c-0.4,0.8-0.8,1.5-1.2,2.3c-0.1,0.3-0.3,0.6-0.4,0.9s-0.3,0.5-0.4,0.8
			c-0.1,0.2-0.2,0.5-0.3,0.8l-0.3,0.6h-1.2h-5c-0.2,0-0.4,0-0.8-0.1c-0.4-0.1-0.7-0.1-1-0.1c-0.3,0-0.6,0-1,0.1
			c-0.4,0.1-0.7,0.1-0.9,0.1h-1.7c-1,0-1.9-0.1-2.6-0.2c-0.8-0.1-1.5-0.3-2.1-0.7c-0.7-0.3-1.3-0.8-1.9-1.4c-0.6-0.7-1-1.4-1.4-2.2
			c-0.3-0.8-0.5-1.6-0.5-2.4v-2.3c0-1.2,0.3-2.5,1-3.7c0.6-1.2,1.6-2.4,2.7-3.4c0.7-0.6,1.3-1,1.9-1.3c0.6-0.3,1.3-0.5,1.9-0.7
			c0.7-0.1,1.6-0.3,2.7-0.4c1.1-0.1,1.9-0.2,2.3-0.3l1.5-0.3h1.5c0.7,0,1.6,0.2,2.7,0.5s2,0.9,2.7,1.6c0.6,0.6,1,1.2,1.4,1.9
			c0.3,0.7,0.5,1.3,0.5,1.9v1.6l-0.8,2.8l-0.9-0.1c-0.4,0-0.7-0.1-1.2-0.2s-0.8-0.1-1.2-0.2c-0.3,0-0.7-0.1-1-0.1
			c-0.3,0-0.8,0.1-1.3,0.2c-0.5,0.1-1.4,0.2-2.7,0.2H148.7z M158.8,117.3l0.1-0.6v-0.6c0-0.2-0.1-0.4-0.3-0.8s-0.5-0.7-0.8-0.9
			c-0.3-0.3-0.7-0.6-1.1-0.8c-0.4-0.2-0.9-0.3-1.3-0.4c-0.5-0.1-0.7-0.2-0.9-0.2h-0.6c-0.1,0-0.4,0.1-1,0.4
			c-0.6,0.3-1.1,0.6-1.6,0.9c-0.4,0.3-0.8,0.7-1.1,1.1c-0.3,0.4-0.5,0.7-0.6,0.9l-0.2,1.3h1.2L158.8,117.3z"/>
		<path class="st1" d="M187.9,114.2l0.1,1.3l-1.2-0.1c0,0-0.1,0-0.3,0c-0.2,0-0.4,0-0.6,0c-0.2,0-0.4,0-0.6,0s-0.4,0-0.7,0
			c-0.2,0-0.6,0.1-1.2,0.1c-0.6,0.1-1.1,0.1-1.5,0.1h-0.5V115c0-0.4-0.5-0.9-1.3-1.5c-0.3-0.2-0.7-0.3-1.2-0.4
			c-0.5-0.1-0.9-0.1-1.1-0.1h-0.6c-0.1,0-0.4,0.1-0.8,0.2c-0.4,0.2-0.8,0.3-1.1,0.5c-0.5,0.3-0.8,0.6-1.2,1s-0.5,0.7-0.5,0.9v0.6
			c0,0.1,0.1,0.3,0.1,0.4c0.1,0.1,0.1,0.2,0.2,0.3c0.1,0.1,0.2,0.2,0.4,0.2s0.3,0.2,0.4,0.2c0.5,0.3,1.2,0.5,2.1,0.5h0.5
			c0.1,0,0.3,0,0.9-0.1c0.5-0.1,0.9-0.1,1.2-0.1c1.2-0.2,2.1-0.3,2.6-0.3h1.8c0.4,0,0.9,0.1,1.5,0.3c0.6,0.2,1,0.5,1.4,0.8
			c0.4,0.3,0.7,0.7,0.9,1.2s0.4,0.9,0.4,1.2v1.5c0,1.6-0.8,3.2-2.4,4.7c-0.8,0.8-1.8,1.3-3.1,1.7c-1.3,0.4-2.3,0.6-3.2,0.6l-1.8-0.1
			h-0.8c-0.2,0-0.4,0-0.6,0.1s-0.5,0.1-0.7,0.2c-0.1,0-0.2,0-0.4,0.1c-0.1,0-0.2,0-0.3,0s-0.2,0-0.3,0s-0.2,0-0.4,0h-1.3
			c-0.5,0-1.2-0.2-2.2-0.5c-1-0.3-1.8-0.7-2.4-1.3c-0.6-0.5-1-1.1-1.3-1.8c-0.3-0.7-0.4-1.3-0.4-1.9l0.1-1.9l2.9,0.4h4l-0.1,0.4
			c0,0.2,0,0.3-0.1,0.5c0,0.2,0,0.3-0.1,0.5c0,0.2,0,0.3,0,0.4c0,0.5,0.1,1,0.4,1.3c0.5,0.6,1.3,0.9,2.6,0.9h0.8
			c0.4,0,1-0.1,1.6-0.4c0.6-0.2,1.1-0.6,1.6-1c1-0.9,1.5-1.8,1.5-2.6v-0.4c0-0.2-0.1-0.5-0.4-0.8c-0.2-0.2-0.7-0.4-1.5-0.6
			c-0.3-0.1-1.2-0.2-2.5-0.2c-0.4,0-0.9,0-1.4,0.1c-0.5,0.1-0.8,0.1-0.7,0.1h-1.5c-0.1,0-0.2,0-0.3,0s-0.3,0-0.5,0
			c-1.6,0-2.8-0.2-3.6-0.7c-1.6-1.1-2.5-2.4-2.5-3.9l0-0.4c0-0.6,0.1-1.1,0.4-1.6c0.2-0.5,0.6-0.9,1-1.3c0.4-0.4,0.9-0.8,1.4-1.1
			c0.7-0.5,1.6-0.9,2.8-1.2c1.2-0.2,2-0.4,2.5-0.4h1l1.7,0.2c0.1,0,0.3-0.1,0.6-0.2s0.5-0.2,0.7-0.2c0.3-0.1,0.6-0.1,1-0.2
			c0.4,0,0.6-0.1,0.8-0.1h2.1c1.1,0,2.2,0.4,3.4,1.2c0.4,0.3,0.7,0.6,1,1c0.2,0.4,0.4,0.8,0.5,1.1
			C187.7,113.6,187.8,113.9,187.9,114.2z"/>
		<path class="st1" d="M192.9,110.7c0.1-0.1,0.3-0.5,0.6-1.1c0.3-0.6,0.6-1.1,0.9-1.5c0.6-0.9,1.1-1.7,1.6-2.3l0.3-0.4h0.5
			c0.5,0,1.2,0,2-0.1c0.8-0.1,1.5-0.1,2-0.2c0.8-0.1,1.8-0.1,3-0.3c1.2-0.1,1.9-0.2,2-0.2l1.4,0l-0.5,0.5c0,0-0.3,0.2-0.9,0.7
			c-0.6,0.4-1.2,0.8-1.7,1.2s-0.9,0.7-1.1,0.9c-0.5,0.4-1,0.9-1.6,1.5c-0.6,0.6-0.9,0.9-0.9,1l-0.6,0.9h1.5c0.7,0,1.8-0.1,3.1-0.2
			c0.7-0.1,1.7-0.2,2.8-0.4l0.8-0.1c-0.5,1-0.8,1.8-1,2.4c-0.1,0.2-0.4,1-0.9,2.1l-3.6-0.1l-4-0.3h-0.6l-0.2,0.6
			c-0.2,0.4-0.3,0.8-0.4,1.1c-0.2,0.7-0.2,1.4-0.2,2.1v2.3c0,0.2,0.1,0.7,0.2,1.5c0.1,0.8,0.3,1.4,0.5,2c0.3,0.7,0.7,1.4,1.3,2
			c0.5,0.6,1.1,0.9,1.5,0.9h0.7c0.3,0,1.4-0.5,3.3-1.5c0.5-0.3,1.1-0.7,1.8-1.1c0.7-0.5,1-0.7,1.1-0.8l0.7-0.3l-0.2,0.8
			c-0.1,0.2-0.2,0.5-0.5,1c-0.3,0.5-0.4,1-0.6,1.4c-0.4,1.1-0.6,1.8-0.6,2l-0.1,0.8l-3,0.2H199c-0.1,0-0.3,0-0.5,0
			c-0.2,0-0.4,0-0.6-0.1s-0.3,0-0.5,0c-0.1,0-0.3,0-0.4,0c-0.1,0-0.3,0-0.4,0.1c-0.1,0-0.3,0-0.4,0h-0.6c-1,0-1.9-0.3-2.6-0.9
			c-0.7-0.6-1.3-1.5-1.8-2.6c-0.4-0.8-0.6-1.8-0.8-2.9c-0.2-1.1-0.2-1.8-0.2-2.1v-1.8l0.3-1.8c0.1-0.6,0.2-1,0.3-1.4
			s0.1-0.6,0.1-0.8l0-0.4H190l-1.9,0.3c0-0.7,0.1-1.4,0.2-2.2c0-0.3,0.2-1,0.5-1.9l2.2,0.1h1.5L192.9,110.7z"/>
		<path class="st1" d="M225.1,128.2l-0.8,0.4c-0.1,0.1-0.2,0.1-0.3,0.2c-0.1,0.1-0.3,0.1-0.4,0.2c-0.2,0-0.3,0.1-0.4,0.1
			c-0.6,0.2-1,0.3-1.2,0.3l-2.1-0.1c-0.1,0-0.2,0-0.5,0.1c-0.2,0.1-0.5,0.1-0.7,0.2c-0.2,0.1-0.4,0.1-0.6,0.1
			c-0.2,0-0.4,0.1-0.5,0.1c-0.1,0-0.3,0.1-0.4,0.1c-0.2,0-0.4,0-0.6,0h-0.9c-0.9,0-1.8-0.2-2.5-0.5c-0.7-0.3-1.4-0.8-2.1-1.5
			c-0.6-0.5-1.1-1.1-1.5-1.9c-0.4-0.7-0.7-1.5-0.9-2.2c-0.2-0.7-0.3-1.4-0.3-2l0.1-1.4c0-1.2,0.3-2.4,0.9-3.6
			c0.5-1.3,1.3-2.3,2.2-3.2c0.6-0.6,1.3-1.1,2.1-1.4c0.8-0.4,1.5-0.7,2.2-0.9c0.7-0.2,1.3-0.3,1.7-0.3h2.6l2-0.4h1.9
			c0.4,0,1.2,0.2,2.6,0.5c0.3,0.1,0.7,0.2,1.4,0.5l0.9-0.3c0.3-0.1,0.5-0.1,0.6-0.2s0.3-0.1,0.6-0.2s0.5-0.2,0.7-0.3
			c0.2-0.1,0.5-0.2,0.8-0.4c0.3-0.1,0.5-0.2,0.6-0.3l0.4,0l-0.2,0.8c-0.6,2.2-0.9,3.8-1,4.7c-0.3,2-0.5,3.6-0.5,5v2.4
			c0,0.1,0,0.6,0.1,1.4c0.1,0.9,0.2,1.6,0.3,2.2c0,0.2,0.1,0.4,0.1,0.6c0,0.2,0.1,0.4,0.1,0.4s0,0.2,0.1,0.4s0.1,0.4,0.1,0.6
			l0.2,0.8h-0.7c-0.3,0-0.6,0-1,0s-0.8,0-1.2-0.1c-0.4,0-0.7,0-1,0c-0.5,0-1.2,0.1-2.3,0.2h-0.5L225.1,128.2z M216.2,125.3
			c0.4,0.4,0.9,0.8,1.4,1.1c0.5,0.3,1,0.4,1.3,0.4h0.5c0.3,0,0.7-0.2,1.3-0.6c0.6-0.4,1.2-0.8,1.8-1.3c0.6-0.5,1.1-1.1,1.6-1.8
			c0.5-0.7,0.9-1.7,1.3-3c0.4-1.2,0.6-2,0.6-2.3l0-0.5c0-0.2-0.3-0.7-0.8-1.3c-0.5-0.6-1-1.1-1.5-1.4c-1-0.7-2-1-2.8-1h-0.6
			c-0.2,0-0.6,0.2-1,0.5c-0.5,0.3-1,0.7-1.6,1.2c-0.6,0.5-1,0.9-1.3,1.4c-1,1.5-1.6,2.8-1.6,3.9v0.6c0,0.5,0.1,1.2,0.3,2
			C215.3,124,215.7,124.7,216.2,125.3z"/>
		<path class="st1" d="M250.9,128l-1,0.2c-0.1,0-0.2,0-0.3,0.1c-0.1,0-0.3,0.1-0.4,0.1c-0.3,0.1-0.7,0.2-1.1,0.2s-0.7,0-0.9,0.1
			l-0.5,0c-1.3,0-2.4,0.2-3.3,0.6c-0.4,0.2-0.8,0.3-1.4,0.4c-0.5,0.1-0.9,0.1-1,0.1h-0.8c-0.4,0-1-0.2-2-0.5s-1.8-0.8-2.4-1.5
			c-0.7-0.7-1.3-1.6-1.7-2.5c-0.4-1-0.6-1.8-0.6-2.6v-1.2c0-0.3,0.1-0.9,0.3-1.8c0.2-0.9,0.5-1.7,0.8-2.3c0.4-0.9,1-1.7,1.7-2.4
			l0.7-0.9h-0.6c-0.3,0-0.6,0-0.8,0c-0.2,0-0.4,0-0.7,0c-0.4,0.1-0.8,0.1-1.2,0.2l-0.7,0.1l1.6-3.8l2.4,0.3h3.4c0.2,0,0.8,0,1.8-0.1
			c1-0.1,2.1-0.1,3.2-0.1c0.4,0,0.7,0,0.9-0.1c0.3,0,0.5,0,0.6,0c0.2,0,0.3,0,0.5,0h2.1l-0.8,0.7c-0.1,0.1-0.4,0.2-0.8,0.5
			c-0.4,0.2-0.9,0.5-1.5,0.9c-0.6,0.4-1.2,0.8-1.8,1.2c-0.6,0.4-1.1,0.9-1.6,1.3c-0.9,1-1.7,1.9-2.2,2.7s-0.8,1.7-0.8,2.6v1.5
			c0,0.4,0.1,0.9,0.4,1.6c0.3,0.7,0.6,1.3,1.1,1.7c0.7,0.7,1.7,1.1,2.8,1.2l0.6-0.1c0.4,0,1-0.2,1.7-0.6s1.3-0.9,2-1.5
			c0.6-0.6,1.2-1.3,1.5-2.1c0.5-0.9,0.8-1.8,1-2.6s0.3-1.5,0.3-1.9v-3.4c0-0.1,0-0.3-0.1-0.7s-0.1-0.7-0.1-1c-0.1-1-0.1-1.5-0.1-1.4
			l-0.1-0.9l0.9,0.1c1,0.2,1.9,0.2,2.8,0.2c0.3,0,0.7,0,1,0c0.3,0,0.6-0.1,0.8-0.1c0.3,0,0.6-0.1,1-0.1l1.1-0.1l-0.3,1.1
			c-0.1,0.3-0.2,0.8-0.3,1.5c-0.1,0.7-0.3,1.4-0.4,2c-0.1,0.4-0.2,1.1-0.3,2.1c-0.1,1-0.2,1.8-0.3,2.5c-0.1,0.7-0.1,1.1-0.1,1.2v3.7
			c0,1.3,0.1,2.4,0.2,3.2c0.1,0.2,0.2,0.5,0.3,0.6c0.1,0.2,0.1,0.4,0.2,0.6l0.2,0.6h-0.8c-0.1,0-0.2,0-0.3,0c-0.1,0-0.5,0-0.9-0.1
			c-0.5,0-0.9-0.1-1.3-0.1c-0.3,0-0.6,0-0.7,0l-1.7,0.1H251L250.9,128z"/>
		<path class="st1" d="M269.7,124.9v1.5c0,0,0.1,0.5,0.2,1.5c0.2,0.7,0.2,1,0.2,1l0.1,0.6l-0.5,0c-0.1,0-0.5,0-1.2-0.1
			c-0.7,0-1.2,0-1.7,0c-0.1,0-0.4,0-0.9,0c-0.5,0-0.8,0.1-1.1,0.1s-0.4,0-0.3,0h-1l0.1-0.4c0.1-1.1,0.2-2,0.3-2.8
			c0.1-1.4,0.2-2.4,0.2-3s0.1-1,0.1-1.1v-4.9c0-0.4-0.1-0.9-0.4-1.7c-0.3-0.8-0.7-1.4-1.2-1.8c-0.4-0.3-0.7-0.6-1-0.8
			s-0.6-0.4-0.9-0.6c-0.3-0.2-0.6-0.4-0.9-0.6l-0.6-0.5l1.6,0.1c0.9,0,1.5,0,1.8,0s0.6,0,1-0.1c0.4,0,0.9-0.1,1.5-0.2
			c1.4-0.1,2.6-0.3,3.5-0.5l0.7-0.2c0.1,0.6,0.2,0.9,0.2,0.9c0,0.1,0,0.2,0.1,0.3s0,0.2,0.1,0.3c0,0.1,0,0.2,0.1,0.3l0.1,0.7
			l0.5-0.4c0,0,0.3-0.1,0.8-0.4c0.5-0.2,0.8-0.4,1.2-0.4c1.8-0.3,3-0.5,3.4-0.5h0.5c0,0,0.2-0.1,0.7-0.2c0.4-0.2,0.8-0.3,1.2-0.3
			c0.1,0,0.4,0,0.9-0.1c0.5-0.1,0.7-0.1,0.7-0.1h2.1c0.3,0,0.9,0.2,1.7,0.5c0.8,0.3,1.4,0.7,1.9,1.2c0.5,0.5,0.8,1.1,1.1,1.8
			c0.2,0.7,0.4,1.3,0.4,1.9l0,0.5c0,0.5-0.2,1.2-0.5,1.9c-0.3,0.7-0.7,1.5-1.2,2.2c-0.3,0.5-0.8,0.9-1.3,1.3s-1.1,0.7-1.7,1
			c-0.6,0.3-0.9,0.5-0.9,0.5c-0.1,0.1-0.2,0.1-0.3,0.2c-0.1,0.1-0.1,0.2-0.2,0.3c0,0.1,0.1,0.3,0.2,0.4c0.1,0.1,0.2,0.2,0.3,0.3
			c0,0,0.3,0.2,0.9,0.6s1.3,0.8,1.9,1.2c0.6,0.3,1.1,0.7,1.6,1c0.5,0.3,0.9,0.6,1.4,0.8c0.5,0.3,1,0.5,1.6,0.8l0.6,0.2l-0.3,0.2
			c-0.1,0.1-0.3,0.1-0.7,0.2c-0.4,0.1-0.8,0.2-1.3,0.2c-0.8,0.2-1.7,0.2-2.5,0.2h-2.9c-0.6,0-1.1-0.1-1.5-0.2
			c-0.1,0-0.3-0.1-0.4-0.1c-0.1-0.1-0.3-0.1-0.5-0.2c-0.2-0.1-0.3-0.2-0.5-0.3c-0.1,0-0.6-0.3-1.5-0.8s-1.6-0.8-2.1-1.1
			c-0.5-0.3-1.3-0.6-2.3-1c-1-0.4-1.6-0.6-1.9-0.7L269.7,124.9z M270,123.2c0.1,0,0.3,0,0.7,0c0.2,0,1-0.2,2.3-0.6s2.3-0.8,3.1-1.2
			c0.7-0.4,1.2-0.8,1.8-1.4c0.5-0.6,0.9-1.2,1.2-1.8c0.3-0.6,0.4-1.3,0.4-1.8v-0.4c0-0.7-0.4-1.2-1.2-1.6c-0.2-0.2-0.6-0.3-1.1-0.5
			s-0.8-0.3-1-0.3H276c-0.2,0-0.8,0.4-1.7,1c-0.9,0.6-1.6,1.3-2.1,1.9c-0.4,0.5-0.8,1.2-1.2,2s-0.6,1.6-0.8,2.3
			c-0.2,0.7-0.3,1.1-0.3,1.3v0.8C269.8,122.8,269.9,123,270,123.2z"/>
		<path class="st1" d="M306.3,128.2l-0.8,0.4c-0.1,0.1-0.2,0.1-0.3,0.2c-0.1,0.1-0.3,0.1-0.4,0.2c-0.2,0-0.3,0.1-0.4,0.1
			c-0.6,0.2-1,0.3-1.2,0.3l-2.1-0.1c-0.1,0-0.2,0-0.5,0.1c-0.2,0.1-0.5,0.1-0.7,0.2c-0.2,0.1-0.4,0.1-0.6,0.1
			c-0.2,0-0.4,0.1-0.5,0.1c-0.1,0-0.3,0.1-0.4,0.1c-0.2,0-0.4,0-0.6,0H297c-0.9,0-1.8-0.2-2.5-0.5c-0.7-0.3-1.4-0.8-2.1-1.5
			c-0.6-0.5-1.1-1.1-1.5-1.9s-0.7-1.5-0.9-2.2c-0.2-0.7-0.3-1.4-0.3-2l0.1-1.4c0-1.2,0.3-2.4,0.9-3.6c0.5-1.3,1.3-2.3,2.2-3.2
			c0.6-0.6,1.3-1.1,2.1-1.4s1.5-0.7,2.2-0.9c0.7-0.2,1.3-0.3,1.7-0.3h2.6l2-0.4h1.9c0.4,0,1.2,0.2,2.6,0.5c0.3,0.1,0.7,0.2,1.4,0.5
			l0.9-0.3c0.3-0.1,0.5-0.1,0.6-0.2c0.1,0,0.3-0.1,0.6-0.2c0.2-0.1,0.5-0.2,0.7-0.3c0.2-0.1,0.5-0.2,0.8-0.4
			c0.3-0.1,0.5-0.2,0.6-0.3l0.4,0l-0.2,0.8c-0.6,2.2-0.9,3.8-1,4.7c-0.3,2-0.5,3.6-0.5,5v2.4c0,0.1,0,0.6,0.1,1.4
			c0.1,0.9,0.2,1.6,0.3,2.2c0,0.2,0.1,0.4,0.1,0.6c0,0.2,0.1,0.4,0.1,0.4s0,0.2,0.1,0.4c0,0.2,0.1,0.4,0.1,0.6l0.2,0.8h-0.7
			c-0.3,0-0.6,0-1,0c-0.4,0-0.8,0-1.2-0.1c-0.4,0-0.7,0-1,0c-0.5,0-1.2,0.1-2.3,0.2h-0.5L306.3,128.2z M297.4,125.3
			c0.4,0.4,0.9,0.8,1.4,1.1c0.5,0.3,1,0.4,1.4,0.4h0.5c0.3,0,0.7-0.2,1.3-0.6c0.6-0.4,1.2-0.8,1.8-1.3s1.1-1.1,1.6-1.8
			c0.5-0.7,0.9-1.7,1.4-3c0.4-1.2,0.6-2,0.6-2.3l0-0.5c0-0.2-0.3-0.7-0.8-1.3c-0.5-0.6-1-1.1-1.5-1.4c-1-0.7-2-1-2.8-1h-0.6
			c-0.2,0-0.5,0.2-1,0.5c-0.5,0.3-1,0.7-1.6,1.2c-0.6,0.5-1,0.9-1.3,1.4c-1,1.5-1.6,2.8-1.6,3.9v0.6c0,0.5,0.1,1.2,0.3,2
			C296.6,124,296.9,124.7,297.4,125.3z"/>
		<path class="st1" d="M336.9,126.3h1.6c0.1,0,0.4-0.1,1-0.4c0.4-0.1,0.7-0.2,1-0.4s0.6-0.3,1-0.4l0.8-0.3l-0.4,0.8
			c0,0-0.2,0.3-0.6,0.9c-0.4,0.6-0.6,0.9-0.7,1c-0.1,0.3-0.2,0.5-0.2,0.6c-0.1,0.2-0.2,0.4-0.3,0.7l-0.4,0.8l-1,0
			c-0.6-0.1-1.3-0.1-1.9-0.1c-0.2,0-0.4,0-0.7-0.1c-0.3,0-0.6,0-0.9-0.1c-0.3,0-0.5,0-0.6,0c-0.1,0-0.2,0-0.3,0h-1.9
			c-0.3,0-0.7,0-1,0s-0.8,0-1.2,0.1c-0.4,0-0.9,0.1-1.4,0.1c-0.3,0-0.6,0.1-0.9,0.1c-0.3,0.1-0.6,0.1-0.8,0.1h-1l0.5-0.6
			c0,0,0.3-0.2,0.8-0.6c0.5-0.4,1-0.7,1.4-1.1s0.9-0.7,1.3-1.1c0.4-0.4,0.8-0.8,1.1-1.2c0.8-1.1,1.5-2.2,2.1-3.4
			c0.6-1.2,0.8-2.1,0.8-2.7v-0.9c0-0.3-0.1-0.8-0.3-1.4c-0.2-0.7-0.5-1.2-0.9-1.5c-0.6-0.7-1.6-1.1-2.9-1.2l-0.7,0.1
			c-0.2,0-0.7,0.2-1.4,0.6c-0.7,0.4-1.4,0.9-2.1,1.6c-0.7,0.6-1.2,1.3-1.6,2c-1.1,2.1-1.7,3.7-1.7,4.8v3.2c0,0.2,0,0.3,0,0.5
			s0,0.4,0.1,0.6c0,0.2,0.1,0.4,0.1,0.5c0,0.4,0.1,1.1,0.3,2.1l-0.8-0.1c-0.1,0-0.2,0-0.3,0c-0.1,0-0.5,0-1-0.1
			c-0.6,0-1-0.1-1.4-0.1c-1,0-1.8,0-2.4,0.1l-1.2,0.2l0.2-0.8c0.4-1.7,0.7-2.9,0.8-3.4c0.2-1.1,0.4-2.7,0.4-4.7v-2
			c0-1.5-0.2-2.8-0.6-3.9c-0.1-0.2-0.2-0.5-0.3-0.7c-0.1-0.3-0.3-0.5-0.4-0.7c-0.1-0.2-0.3-0.4-0.5-0.7c-0.2-0.3-0.3-0.5-0.4-0.7
			l-0.4-0.7l1.5,0.1c1.4,0,2.6-0.1,3.5-0.2c1.2-0.1,2.2-0.3,2.9-0.5l0.6-0.2l0,1.4c0,0.3,0,0.5,0.1,0.7c0,0.1,0.1,0.1,0.3,0.1
			c0.1,0,0.2,0,0.3-0.1c0.1,0,0.2-0.1,0.3-0.1c0,0,0.2-0.1,0.6-0.2c0.3-0.1,0.6-0.2,0.9-0.3c0.5-0.2,1.1-0.3,1.9-0.3l0.6-0.1
			c0.2,0,0.7,0,1.4-0.1c0.7-0.1,1.4-0.2,2-0.4c0.4-0.1,0.8-0.2,1.3-0.3c0.5-0.1,0.8-0.1,1.1-0.1h0.7c0.3,0,0.8,0.1,1.5,0.2
			s1.3,0.3,1.7,0.6c0.7,0.4,1.2,0.8,1.7,1.5c0.5,0.6,0.8,1.3,1,2c0.2,0.7,0.3,1.3,0.3,1.9v1.5c0,0.2,0,0.6-0.1,1s-0.2,1-0.4,1.5
			c-0.2,0.6-0.3,1-0.5,1.4c-0.1,0.3-0.3,0.6-0.6,1c-0.3,0.4-0.6,0.8-0.9,1.2s-0.5,0.6-0.5,0.6L336.9,126.3z"/>
		<path class="st1" d="M347.2,110.7c0.1-0.1,0.3-0.5,0.6-1.1c0.3-0.6,0.6-1.1,0.9-1.5c0.6-0.9,1.1-1.7,1.6-2.3l0.3-0.4h0.5
			c0.5,0,1.2,0,2-0.1c0.8-0.1,1.5-0.1,2-0.2c0.8-0.1,1.8-0.1,3-0.3c1.2-0.1,1.9-0.2,2-0.2l1.4,0l-0.5,0.5c0,0-0.3,0.2-0.9,0.7
			c-0.6,0.4-1.2,0.8-1.7,1.2c-0.5,0.4-0.9,0.7-1.1,0.9c-0.5,0.4-1,0.9-1.6,1.5c-0.6,0.6-0.9,0.9-0.9,1l-0.6,0.9h1.5
			c0.7,0,1.8-0.1,3.1-0.2c0.7-0.1,1.7-0.2,2.8-0.4l0.8-0.1c-0.5,1-0.8,1.8-1,2.4c-0.1,0.2-0.4,1-0.9,2.1l-3.6-0.1l-4-0.3H352
			l-0.2,0.6c-0.2,0.4-0.3,0.8-0.4,1.1c-0.2,0.7-0.2,1.4-0.2,2.1v2.3c0,0.2,0.1,0.7,0.2,1.5c0.1,0.8,0.3,1.4,0.5,2
			c0.3,0.7,0.7,1.4,1.3,2c0.5,0.6,1.1,0.9,1.5,0.9h0.7c0.3,0,1.4-0.5,3.3-1.5c0.5-0.3,1.1-0.7,1.8-1.1c0.7-0.5,1-0.7,1.1-0.8
			l0.7-0.3l-0.2,0.8c-0.1,0.2-0.2,0.5-0.5,1c-0.3,0.5-0.4,1-0.6,1.4c-0.4,1.1-0.6,1.8-0.6,2l-0.1,0.8l-3,0.2h-3.7
			c-0.1,0-0.3,0-0.5,0c-0.2,0-0.4,0-0.6-0.1s-0.3,0-0.5,0c-0.1,0-0.3,0-0.4,0c-0.1,0-0.3,0-0.4,0.1c-0.1,0-0.3,0-0.4,0H350
			c-1,0-1.9-0.3-2.6-0.9c-0.7-0.6-1.3-1.5-1.8-2.6c-0.4-0.8-0.6-1.8-0.8-2.9c-0.2-1.1-0.2-1.8-0.2-2.1v-1.8l0.3-1.8
			c0.1-0.6,0.2-1,0.3-1.4s0.1-0.6,0.1-0.8l0-0.4h-0.9l-1.9,0.3c0-0.7,0.1-1.4,0.2-2.2c0-0.3,0.2-1,0.5-1.9l2.2,0.1h1.5L347.2,110.7z
			"/>
		<path class="st1" d="M369.8,120c0-1.3,0.9-2.3,2.2-2.3s2.1,0.9,2.1,2.3c0,1.3-0.9,2.3-2.2,2.3C370.7,122.3,369.8,121.3,369.8,120z
			"/>
		<path class="st1" d="M384.5,113.6h-1.2c-0.2,0-0.5,0-1.1,0.1c-0.1,0-0.3,0-0.5,0.1c-0.2,0-0.4,0-0.5,0.1c-0.1,0-0.2,0-0.2,0
			l-1.2,0.2l2.3-3.6l1.8,0.1h3.6c0.3,0,0.8,0,1.3-0.1c0.5,0,1-0.1,1.4-0.1c0.4,0,0.8-0.1,1.3-0.2s0.8-0.1,0.9-0.1h0.8l-0.6,0.6
			c0,0-0.3,0.3-0.9,0.9s-1.1,1.2-1.6,1.8c-0.5,0.6-0.9,1.2-1.3,1.9c-0.3,0.5-0.5,1.1-0.7,1.8c-0.2,0.7-0.4,1.3-0.5,1.9
			c-0.1,0.6-0.2,1.1-0.2,1.5v1.1c0,0.4,0.1,0.9,0.2,1.5c0.2,0.6,0.4,1.2,0.7,1.6c0.4,0.6,1,1,1.7,1.4c0.7,0.4,1.2,0.6,1.7,0.6h0.8
			c0.1,0,0.5-0.2,1.2-0.6c0.7-0.4,1.4-1,2.2-1.6c0.8-0.6,1.4-1.3,1.8-1.9c0.6-0.9,1.1-1.8,1.5-2.7s0.6-1.8,0.6-2.5v-1.3
			c0-0.3-0.1-0.6-0.2-1c-0.2-0.3-0.4-0.6-0.7-0.9s-0.6-0.5-1-0.6c-0.4-0.2-1-0.3-1.9-0.5c-0.9-0.1-1.4-0.2-1.6-0.3l-0.5-0.1l0.4-0.3
			c0.5-0.4,1.8-1,3.9-1.6c1.8-0.5,2.9-0.8,3.5-0.8h0.8c0.4,0,1,0.2,1.6,0.7c0.6,0.5,1.1,1,1.4,1.5c0.3,0.5,0.5,1,0.6,1.5
			s0.1,1.2,0.1,2v1.6c0,0.9-0.3,2.1-0.9,3.4s-1.4,2.5-2.3,3.6c-0.8,0.9-1.7,1.6-2.7,2.2s-2.1,1.1-3.1,1.5c-1,0.4-1.8,0.6-2.4,0.6
			h-0.9c0,0-0.2,0-0.4,0c-0.2,0-0.4,0.1-0.7,0.1s-0.5,0.1-0.6,0.1c-0.1,0-0.3,0.1-0.5,0.1c-1.1,0.2-1.8,0.3-2.1,0.3h-2.3
			c-0.8,0-1.6-0.2-2.4-0.6c-0.8-0.4-1.6-0.9-2.2-1.6c-0.5-0.6-0.9-1.3-1.2-2c-0.3-0.7-0.4-1.4-0.4-2v-2.4c0-0.4,0.1-0.9,0.3-1.7
			c0.2-0.8,0.5-1.5,0.8-2.2c0.2-0.3,0.5-0.8,1-1.4c0.4-0.6,0.7-0.9,0.7-1.1L384.5,113.6z"/>
		<path class="st1" d="M412.9,120.3v1c0,0.3,0.1,0.9,0.4,1.8s0.6,1.6,1.1,2.1c0.4,0.4,0.8,0.7,1.4,0.9c0.6,0.2,1.2,0.4,1.8,0.5
			c0.6,0.1,1,0.1,1.1,0.1h1.1c0.3,0,1-0.2,2.1-0.6c1.2-0.4,2.2-0.8,3.1-1.2c0.8-0.4,1.7-0.9,2.7-1.5c1-0.6,1.6-1,1.9-1.2l0.6-0.3
			l-0.3,0.8c0,0-0.3,0.5-0.7,1.2c-0.4,0.8-0.8,1.5-1.2,2.3c-0.1,0.3-0.3,0.6-0.4,0.9c-0.1,0.3-0.3,0.5-0.4,0.8
			c-0.1,0.2-0.2,0.5-0.3,0.8l-0.3,0.6h-1.2h-5c-0.2,0-0.4,0-0.8-0.1c-0.4-0.1-0.7-0.1-1-0.1c-0.3,0-0.6,0-1,0.1
			c-0.4,0.1-0.7,0.1-0.9,0.1h-1.7c-1,0-1.9-0.1-2.6-0.2c-0.8-0.1-1.5-0.3-2.1-0.7c-0.7-0.3-1.3-0.8-1.9-1.4c-0.6-0.7-1-1.4-1.4-2.2
			c-0.3-0.8-0.5-1.6-0.5-2.4v-2.3c0-1.2,0.3-2.5,1-3.7s1.6-2.4,2.7-3.4c0.7-0.6,1.3-1,1.9-1.3s1.3-0.5,1.9-0.7
			c0.7-0.1,1.6-0.3,2.7-0.4c1.1-0.1,1.9-0.2,2.3-0.3l1.5-0.3h1.5c0.7,0,1.6,0.2,2.7,0.5s2,0.9,2.7,1.6c0.6,0.6,1,1.2,1.4,1.9
			s0.5,1.3,0.5,1.9v1.6l-0.8,2.8l-0.9-0.1c-0.4,0-0.7-0.1-1.2-0.2c-0.4-0.1-0.8-0.1-1.2-0.2c-0.3,0-0.7-0.1-1-0.1
			c-0.3,0-0.8,0.1-1.3,0.2c-0.5,0.1-1.4,0.2-2.7,0.2H412.9z M423,117.3l0.1-0.6v-0.6c0-0.2-0.1-0.4-0.3-0.8s-0.5-0.7-0.8-0.9
			c-0.3-0.3-0.7-0.6-1.1-0.8s-0.9-0.3-1.3-0.4c-0.5-0.1-0.7-0.2-0.9-0.2H418c-0.1,0-0.4,0.1-1,0.4s-1.1,0.6-1.6,0.9
			c-0.4,0.3-0.8,0.7-1.1,1.1c-0.3,0.4-0.5,0.7-0.6,0.9l-0.2,1.3h1.2L423,117.3z"/>
		<path class="st1" d="M453.1,126.3h1.6c0.1,0,0.4-0.1,1-0.4c0.4-0.1,0.7-0.2,1-0.4s0.6-0.3,1-0.4l0.8-0.3l-0.4,0.8
			c0,0-0.2,0.3-0.6,0.9c-0.4,0.6-0.6,0.9-0.7,1c-0.1,0.3-0.2,0.5-0.2,0.6c-0.1,0.2-0.2,0.4-0.3,0.7l-0.4,0.8l-1,0
			c-0.6-0.1-1.3-0.1-1.9-0.1c-0.2,0-0.4,0-0.7-0.1c-0.3,0-0.6,0-0.9-0.1c-0.3,0-0.5,0-0.6,0c-0.1,0-0.2,0-0.3,0h-1.9
			c-0.3,0-0.7,0-1,0s-0.8,0-1.2,0.1c-0.4,0-0.9,0.1-1.4,0.1c-0.3,0-0.6,0.1-0.9,0.1c-0.3,0.1-0.6,0.1-0.8,0.1h-1l0.5-0.6
			c0,0,0.3-0.2,0.8-0.6c0.5-0.4,1-0.7,1.4-1.1s0.9-0.7,1.3-1.1c0.4-0.4,0.8-0.8,1.1-1.2c0.8-1.1,1.5-2.2,2.1-3.4
			c0.6-1.2,0.8-2.1,0.8-2.7v-0.9c0-0.3-0.1-0.8-0.3-1.4c-0.2-0.7-0.5-1.2-0.9-1.5c-0.6-0.7-1.6-1.1-2.9-1.2l-0.7,0.1
			c-0.2,0-0.7,0.2-1.4,0.6c-0.7,0.4-1.4,0.9-2.1,1.6c-0.7,0.6-1.2,1.3-1.6,2c-1.1,2.1-1.7,3.7-1.7,4.8v3.2c0,0.2,0,0.3,0,0.5
			s0,0.4,0.1,0.6c0,0.2,0.1,0.4,0.1,0.5c0,0.4,0.1,1.1,0.3,2.1l-0.8-0.1c-0.1,0-0.2,0-0.3,0c-0.1,0-0.5,0-1-0.1
			c-0.6,0-1-0.1-1.4-0.1c-1,0-1.8,0-2.4,0.1l-1.2,0.2l0.2-0.8c0.4-1.7,0.7-2.9,0.8-3.4c0.2-1.1,0.4-2.7,0.4-4.7v-2
			c0-1.5-0.2-2.8-0.6-3.9c-0.1-0.2-0.2-0.5-0.3-0.7c-0.1-0.3-0.3-0.5-0.4-0.7c-0.1-0.2-0.3-0.4-0.5-0.7c-0.2-0.3-0.3-0.5-0.4-0.7
			l-0.4-0.7l1.5,0.1c1.4,0,2.6-0.1,3.5-0.2c1.2-0.1,2.2-0.3,2.9-0.5l0.6-0.2l0,1.4c0,0.3,0,0.5,0.1,0.7c0,0.1,0.1,0.1,0.3,0.1
			c0.1,0,0.2,0,0.3-0.1c0.1,0,0.2-0.1,0.3-0.1c0,0,0.2-0.1,0.6-0.2c0.3-0.1,0.6-0.2,0.9-0.3c0.5-0.2,1.1-0.3,1.9-0.3l0.6-0.1
			c0.2,0,0.7,0,1.4-0.1c0.7-0.1,1.4-0.2,2-0.4c0.4-0.1,0.8-0.2,1.3-0.3c0.5-0.1,0.8-0.1,1.1-0.1h0.7c0.3,0,0.8,0.1,1.5,0.2
			s1.3,0.3,1.7,0.6c0.7,0.4,1.2,0.8,1.7,1.5c0.5,0.6,0.8,1.3,1,2c0.2,0.7,0.3,1.3,0.3,1.9v1.5c0,0.2,0,0.6-0.1,1s-0.2,1-0.4,1.5
			c-0.2,0.6-0.3,1-0.5,1.4c-0.1,0.3-0.3,0.6-0.6,1c-0.3,0.4-0.6,0.8-0.9,1.2s-0.5,0.6-0.5,0.6L453.1,126.3z"/>
		<path class="st1" d="M476.7,128l-1,0.2c-0.1,0-0.2,0-0.3,0.1c-0.1,0-0.3,0.1-0.4,0.1c-0.3,0.1-0.7,0.2-1.1,0.2s-0.7,0-0.9,0.1
			l-0.5,0c-1.3,0-2.4,0.2-3.3,0.6c-0.4,0.2-0.8,0.3-1.3,0.4c-0.5,0.1-0.9,0.1-1,0.1h-0.8c-0.4,0-1-0.2-2-0.5s-1.8-0.8-2.4-1.5
			c-0.7-0.7-1.3-1.6-1.7-2.5c-0.4-1-0.6-1.8-0.6-2.6v-1.2c0-0.3,0.1-0.9,0.3-1.8c0.2-0.9,0.5-1.7,0.8-2.3c0.4-0.9,1-1.7,1.7-2.4
			l0.7-0.9h-0.6c-0.3,0-0.6,0-0.8,0s-0.4,0-0.7,0c-0.4,0.1-0.8,0.1-1.2,0.2l-0.7,0.1l1.6-3.8l2.4,0.3h3.4c0.2,0,0.8,0,1.8-0.1
			c1-0.1,2.1-0.1,3.2-0.1c0.4,0,0.7,0,0.9-0.1s0.5,0,0.6,0c0.2,0,0.3,0,0.5,0h2.1l-0.8,0.7c-0.1,0.1-0.4,0.2-0.8,0.5
			c-0.4,0.2-0.9,0.5-1.5,0.9c-0.6,0.4-1.2,0.8-1.8,1.2c-0.6,0.4-1.1,0.9-1.6,1.3c-0.9,1-1.7,1.9-2.2,2.7c-0.5,0.8-0.8,1.7-0.8,2.6
			v1.5c0,0.4,0.1,0.9,0.4,1.6c0.3,0.7,0.6,1.3,1.1,1.7c0.7,0.7,1.7,1.1,2.8,1.2l0.6-0.1c0.4,0,1-0.2,1.7-0.6s1.3-0.9,2-1.5
			c0.6-0.6,1.2-1.3,1.5-2.1c0.5-0.9,0.8-1.8,1-2.6c0.2-0.8,0.3-1.5,0.3-1.9v-3.4c0-0.1,0-0.3-0.1-0.7s-0.1-0.7-0.1-1
			c-0.1-1-0.1-1.5-0.1-1.4l-0.1-0.9l0.9,0.1c1,0.2,1.9,0.2,2.8,0.2c0.3,0,0.7,0,1,0c0.3,0,0.6-0.1,0.8-0.1c0.3,0,0.6-0.1,1-0.1
			l1.1-0.1l-0.3,1.1c-0.1,0.3-0.2,0.8-0.3,1.5c-0.1,0.7-0.3,1.4-0.4,2c-0.1,0.4-0.2,1.1-0.3,2.1c-0.1,1-0.2,1.8-0.3,2.5
			c-0.1,0.7-0.1,1.1-0.1,1.2v3.7c0,1.3,0.1,2.4,0.2,3.2c0.1,0.2,0.2,0.5,0.3,0.6s0.1,0.4,0.2,0.6l0.2,0.6h-0.8c-0.1,0-0.2,0-0.3,0
			c-0.1,0-0.5,0-0.9-0.1c-0.5,0-0.9-0.1-1.3-0.1c-0.3,0-0.6,0-0.7,0l-1.7,0.1h-1.3L476.7,128z"/>
		<path class="st1" d="M491.7,120.3v1c0,0.3,0.1,0.9,0.4,1.8s0.6,1.6,1.1,2.1c0.4,0.4,0.8,0.7,1.4,0.9c0.6,0.2,1.2,0.4,1.8,0.5
			c0.6,0.1,1,0.1,1.1,0.1h1.1c0.3,0,1-0.2,2.1-0.6c1.2-0.4,2.2-0.8,3.1-1.2c0.8-0.4,1.7-0.9,2.7-1.5c1-0.6,1.6-1,1.9-1.2l0.6-0.3
			l-0.3,0.8c0,0-0.3,0.5-0.7,1.2c-0.4,0.8-0.8,1.5-1.2,2.3c-0.1,0.3-0.3,0.6-0.4,0.9c-0.1,0.3-0.3,0.5-0.4,0.8
			c-0.1,0.2-0.2,0.5-0.3,0.8l-0.3,0.6h-1.2h-5c-0.2,0-0.4,0-0.8-0.1c-0.4-0.1-0.7-0.1-1-0.1c-0.3,0-0.6,0-1,0.1
			c-0.4,0.1-0.7,0.1-0.9,0.1h-1.7c-1,0-1.9-0.1-2.6-0.2c-0.8-0.1-1.5-0.3-2.1-0.7c-0.7-0.3-1.3-0.8-1.9-1.4c-0.6-0.7-1-1.4-1.4-2.2
			c-0.3-0.8-0.5-1.6-0.5-2.4v-2.3c0-1.2,0.3-2.5,1-3.7s1.6-2.4,2.7-3.4c0.7-0.6,1.3-1,1.9-1.3s1.3-0.5,1.9-0.7
			c0.7-0.1,1.6-0.3,2.7-0.4c1.1-0.1,1.9-0.2,2.3-0.3l1.5-0.3h1.5c0.7,0,1.6,0.2,2.7,0.5s2,0.9,2.7,1.6c0.6,0.6,1,1.2,1.4,1.9
			s0.5,1.3,0.5,1.9v1.6l-0.8,2.8l-0.9-0.1c-0.4,0-0.7-0.1-1.2-0.2c-0.4-0.1-0.8-0.1-1.2-0.2c-0.3,0-0.7-0.1-1-0.1
			c-0.3,0-0.8,0.1-1.3,0.2c-0.5,0.1-1.4,0.2-2.7,0.2H491.7z M501.7,117.3l0.1-0.6v-0.6c0-0.2-0.1-0.4-0.3-0.8s-0.5-0.7-0.8-0.9
			c-0.3-0.3-0.7-0.6-1.1-0.8s-0.9-0.3-1.3-0.4c-0.5-0.1-0.7-0.2-0.9-0.2h-0.6c-0.1,0-0.4,0.1-1,0.4s-1.1,0.6-1.6,0.9
			c-0.4,0.3-0.8,0.7-1.1,1.1c-0.3,0.4-0.5,0.7-0.6,0.9l-0.2,1.3h1.2L501.7,117.3z"/>
	</g>
</g>
</svg>
